<svg version="1.2" xmlns="http://www.w3.org/2000/svg" viewBox="0 0 200 200" width="200" height="200">
	<title>logo</title>
	<style>
		.s0 { fill: #27dddf } 
	</style>
	<rect width="200" height="200" id="Color Fill 1" style="fill: #101828"/>
	<rect width="200" height="200" id="Color Fill 2" style="fill: #0a192f"/>
	<g>
		<path id="svg_2" class="s0" d="m101.3 8.4l76.7 44.3v91.7l-79.5 45.9-79.4-45.9v-91.7l79.4-45.9 2.8 1.6zm31.4 30.9l-34.2-19.8-68.4 39.5v79.1l68.4 39.5 68.5-39.5v-79.1z"/>
		<path id="g" class="s0" aria-label="g"  d="m120.9 77.7h18.8c-2.4-17.3-17.7-29.5-37.5-29.5-23.1 0-41 16.7-41 45.1 0 27.7 16.7 44.9 41.4 44.9 22.1 0 37.9-14 37.9-37v-11.1h-36.7v14h18.9c-0.3 10.8-7.7 17.7-20 17.7-13.9 0-22.7-10.4-22.7-28.7 0-18.2 9.1-28.5 22.5-28.5 9.5 0 16 4.9 18.4 13.1zm-3.2 0h18.8c-2.4-17.3-17.7-29.5-37.5-29.5-23.1 0-40.9 16.7-40.9 45.1 0 27.7 16.6 44.9 41.3 44.9 22.1 0 37.9-14 37.9-37v-11.1h-36.6v14h18.8c-0.3 10.8-7.7 17.7-20 17.7-13.9 0-22.7-10.4-22.7-28.7 0-18.2 9.1-28.5 22.5-28.5 9.6 0 16 4.9 18.4 13.1z"/>
	</g>
</svg>